# xmcd
#
# Track frame offsets:
# 150
# 17780
# 33767
# 48121
# 60353
# 80422
# 95756
# 116314
# 129362
# 148778
# 166452
# 172480
#
# Disc length: 2752 seconds
#
# Revision: 0
# Processed by: cddbd v1.5.2PL0 Copyright (c) Steve Scherf et al.
# Submitted via: CoinsHifi v1.9h contact@coinshifi.com
#
DISCID=9a0abe0c
DTITLE=Dalida - Dalida à Tibuze
DYEAR=1978
DGENRE=Dance 
TTITLE0=Les Grilles de ma maison
TTITLE1=Les clefs de l'amour
TTITLE2=Salma ya salama
TTITLE3=Que sont devenues les fleurs
TTITLE4=Avec le temps
TTITLE5=Amoureuse de la vie
TTITLE6=Po pourri
TTITLE7=Il venait d'avoir 18 ans
TTITLE8=Je suis maladee
TTITLE9=J'attendrai
TTITLE10=Dalidr présente ses musiciens
TTITLE11=Gigi l'amoroso
EXTD=
EXTT0=Instrumental
EXTT1=Instrumental
EXTT2=Instrumental
EXTT3=Instrumental
EXTT4=Instrumental
EXTT5=Instrumental
EXTT6=Instrumental
EXTT7=Instrumental
EXTT8=Instrumental
EXTT9=Instrumental
EXTT10=Instrumental
EXTT11=Instrumental
PLAYORDER=
